HIERARCHY
ROOT Hips
{
	OFFSET 0.000000 100.481300 0.000000
	CHANNELS 6 Xposition Yposition Zposition Xrotation Yrotation Zrotation
	JOINT Spine
	{
		OFFSET -0.279200 12.230698 -2.892100
		CHANNELS 3 Xrotation Yrotation Zrotation
		JOINT Spine1
		{
			OFFSET -0.325700 14.269203 -3.374200
			CHANNELS 3 Xrotation Yrotation Zrotation
			JOINT Spine2
			{
				OFFSET -0.372300 16.307602 -0.352600
				CHANNELS 3 Xrotation Yrotation Zrotation
				JOINT Neck
				{
					OFFSET -0.418800 17.814194 8.416900
					CHANNELS 3 Xrotation Yrotation Zrotation
					JOINT Head
					{
						OFFSET 0.000000 7.031097 3.806800
						CHANNELS 3 Xrotation Yrotation Zrotation
						JOINT HeadTop_End
						{
							OFFSET 0.000000 24.646606 12.978600
							CHANNELS 3 Xrotation Yrotation Zrotation
							End Site
							{
								OFFSET 0.000000 27.854965 0.000000
							}
						}
					}
				}
				JOINT LeftShoulder
				{
					OFFSET 16.952999 14.495407 -7.737500
					CHANNELS 3 Xrotation Yrotation Zrotation
					JOINT LeftArm
					{
						OFFSET 9.308998 -2.777710 0.208600
						CHANNELS 3 Xrotation Yrotation Zrotation
						JOINT LeftForeArm
						{
							OFFSET 29.972298 0.000000 0.000000
							CHANNELS 3 Xrotation Yrotation Zrotation
							JOINT LeftHand
							{
								OFFSET 26.026505 0.000000 0.000000
								CHANNELS 3 Xrotation Yrotation Zrotation
								JOINT LeftHandThumb1
								{
									OFFSET 12.240501 -7.147949 9.207150
									CHANNELS 3 Xrotation Yrotation Zrotation
									JOINT LeftHandThumb2
									{
										OFFSET 4.138618 -2.389435 2.389433
										CHANNELS 3 Xrotation Yrotation Zrotation
										JOINT LeftHandThumb3
										{
											OFFSET 2.726913 -1.574387 1.574386
											CHANNELS 3 Xrotation Yrotation Zrotation
											JOINT LeftHandThumb4
											{
												OFFSET 3.941010 -2.275345 2.275342
												CHANNELS 3 Xrotation Yrotation Zrotation
												End Site
												{
													OFFSET -0.005798 5.087799 0.009903
												}
											}
										}
									}
								}
								JOINT LeftHandIndex1
								{
									OFFSET 24.424698 -1.985611 5.953459
									CHANNELS 3 Xrotation Yrotation Zrotation
									JOINT LeftHandIndex2
									{
										OFFSET 6.426697 0.000000 0.000000
										CHANNELS 3 Xrotation Yrotation Zrotation
										JOINT LeftHandIndex3
										{
											OFFSET 5.337898 0.000000 0.000000
											CHANNELS 3 Xrotation Yrotation Zrotation
											JOINT LeftHandIndex4
											{
												OFFSET 4.409401 0.000000 0.000000
												CHANNELS 3 Xrotation Yrotation Zrotation
												End Site
												{
													OFFSET 0.000000 4.409363 0.014373
												}
											}
										}
									}
								}
								JOINT LeftHandMiddle1
								{
									OFFSET 23.810104 0.000000 0.000000
									CHANNELS 3 Xrotation Yrotation Zrotation
									JOINT LeftHandMiddle2
									{
										OFFSET 7.176498 0.000000 0.000000
										CHANNELS 3 Xrotation Yrotation Zrotation
										JOINT LeftHandMiddle3
										{
											OFFSET 6.774902 0.000000 0.000000
											CHANNELS 3 Xrotation Yrotation Zrotation
											JOINT LeftHandMiddle4
											{
												OFFSET 5.403328 0.000000 0.000000
												CHANNELS 3 Xrotation Yrotation Zrotation
												End Site
												{
													OFFSET -0.027702 5.403244 0.017414
												}
											}
										}
									}
								}
								JOINT LeftHandRing1
								{
									OFFSET 22.908401 -0.839279 -6.020567
									CHANNELS 3 Xrotation Yrotation Zrotation
									JOINT LeftHandRing2
									{
										OFFSET 6.337502 0.000000 0.000000
										CHANNELS 3 Xrotation Yrotation Zrotation
										JOINT LeftHandRing3
										{
											OFFSET 5.779297 0.000000 0.000000
											CHANNELS 3 Xrotation Yrotation Zrotation
											JOINT LeftHandRing4
											{
												OFFSET 4.965698 0.000000 0.000000
												CHANNELS 3 Xrotation Yrotation Zrotation
												End Site
												{
													OFFSET 0.000000 4.965668 0.016186
												}
											}
										}
									}
								}
								JOINT LeftHandPinky1
								{
									OFFSET 20.037003 -1.530319 -10.950146
									CHANNELS 3 Xrotation Yrotation Zrotation
									JOINT LeftHandPinky2
									{
										OFFSET 5.254700 0.000000 0.000000
										CHANNELS 3 Xrotation Yrotation Zrotation
										JOINT LeftHandPinky3
										{
											OFFSET 4.810204 0.000000 0.000000
											CHANNELS 3 Xrotation Yrotation Zrotation
											JOINT LeftHandPinky4
											{
												OFFSET 3.647202 0.000000 0.000000
												CHANNELS 3 Xrotation Yrotation Zrotation
												End Site
												{
													OFFSET 0.000000 3.647186 0.011889
												}
											}
										}
									}
								}
							}
						}
					}
				}
				JOINT RightShoulder
				{
					OFFSET -15.141001 14.495407 -7.737500
					CHANNELS 3 Xrotation Yrotation Zrotation
					JOINT RightArm
					{
						OFFSET -9.308998 -2.777710 0.208500
						CHANNELS 3 Xrotation Yrotation Zrotation
						JOINT RightForeArm
						{
							OFFSET -29.972300 0.000000 0.000000
							CHANNELS 3 Xrotation Yrotation Zrotation
							JOINT RightHand
							{
								OFFSET -26.026505 0.000000 0.000000
								CHANNELS 3 Xrotation Yrotation Zrotation
								JOINT RightHandThumb1
								{
									OFFSET -12.240601 -7.148026 9.207092
									CHANNELS 3 Xrotation Yrotation Zrotation
									JOINT RightHandThumb2
									{
										OFFSET -4.138618 -2.389435 2.389433
										CHANNELS 3 Xrotation Yrotation Zrotation
										JOINT RightHandThumb3
										{
											OFFSET -2.726974 -1.574417 1.574421
											CHANNELS 3 Xrotation Yrotation Zrotation
											JOINT RightHandThumb4
											{
												OFFSET -3.941010 -2.275345 2.275343
												CHANNELS 3 Xrotation Yrotation Zrotation
												End Site
												{
													OFFSET 0.005814 5.087799 0.009927
												}
											}
										}
									}
								}
								JOINT RightHandIndex1
								{
									OFFSET -24.424698 -1.985657 5.953444
									CHANNELS 3 Xrotation Yrotation Zrotation
									JOINT RightHandIndex2
									{
										OFFSET -6.426697 0.000000 0.000000
										CHANNELS 3 Xrotation Yrotation Zrotation
										JOINT RightHandIndex3
										{
											OFFSET -5.337898 0.000000 0.000000
											CHANNELS 3 Xrotation Yrotation Zrotation
											JOINT RightHandIndex4
											{
												OFFSET -4.409401 0.000000 0.000000
												CHANNELS 3 Xrotation Yrotation Zrotation
												End Site
												{
													OFFSET 0.000000 4.409363 0.014408
												}
											}
										}
									}
								}
								JOINT RightHandMiddle1
								{
									OFFSET -23.810097 0.000000 0.000000
									CHANNELS 3 Xrotation Yrotation Zrotation
									JOINT RightHandMiddle2
									{
										OFFSET -7.176498 0.000000 0.000000
										CHANNELS 3 Xrotation Yrotation Zrotation
										JOINT RightHandMiddle3
										{
											OFFSET -6.774902 0.000000 0.000000
											CHANNELS 3 Xrotation Yrotation Zrotation
											JOINT RightHandMiddle4
											{
												OFFSET -5.403328 0.000000 0.000000
												CHANNELS 3 Xrotation Yrotation Zrotation
												End Site
												{
													OFFSET 0.027702 5.403244 0.017457
												}
											}
										}
									}
								}
								JOINT RightHandRing1
								{
									OFFSET -22.908302 -0.839325 -6.020576
									CHANNELS 3 Xrotation Yrotation Zrotation
									JOINT RightHandRing2
									{
										OFFSET -6.337502 0.000000 0.000000
										CHANNELS 3 Xrotation Yrotation Zrotation
										JOINT RightHandRing3
										{
											OFFSET -5.779297 0.000000 0.000000
											CHANNELS 3 Xrotation Yrotation Zrotation
											JOINT RightHandRing4
											{
												OFFSET -4.965698 0.000000 0.000000
												CHANNELS 3 Xrotation Yrotation Zrotation
												End Site
												{
													OFFSET 0.000000 4.965668 0.016226
												}
											}
										}
									}
								}
								JOINT RightHandPinky1
								{
									OFFSET -20.037003 -1.530334 -10.950259
									CHANNELS 3 Xrotation Yrotation Zrotation
									JOINT RightHandPinky2
									{
										OFFSET -5.254700 0.000000 0.000000
										CHANNELS 3 Xrotation Yrotation Zrotation
										JOINT RightHandPinky3
										{
											OFFSET -4.810204 0.000000 0.000000
											CHANNELS 3 Xrotation Yrotation Zrotation
											JOINT RightHandPinky4
											{
												OFFSET -3.647202 0.000000 0.000000
												CHANNELS 3 Xrotation Yrotation Zrotation
												End Site
												{
													OFFSET 0.000000 3.647186 0.011917
												}
											}
										}
									}
								}
							}
						}
					}
				}
			}
		}
	}
	JOINT LeftUpLeg
	{
		OFFSET 15.427100 -6.655098 0.678600
		CHANNELS 3 Xrotation Yrotation Zrotation
		JOINT LeftLeg
		{
			OFFSET 4.081073 -39.591068 13.024000
			CHANNELS 3 Xrotation Yrotation Zrotation
			JOINT LeftFoot
			{
				OFFSET -4.081074 -37.707932 -15.979700
				CHANNELS 3 Xrotation Yrotation Zrotation
				JOINT LeftToeBase
				{
					OFFSET 5.346399 -15.068900 20.645000
					CHANNELS 3 Xrotation Yrotation Zrotation
					JOINT LeftToe_End
					{
						OFFSET 2.754700 0.931300 11.300900
						CHANNELS 3 Xrotation Yrotation Zrotation
						End Site
						{
							OFFSET 0.000000 11.669021 0.000000
						}
					}
				}
			}
		}
	}
	JOINT RightUpLeg
	{
		OFFSET -15.569500 -6.655098 0.678600
		CHANNELS 3 Xrotation Yrotation Zrotation
		JOINT RightLeg
		{
			OFFSET -4.081825 -39.591045 13.023800
			CHANNELS 3 Xrotation Yrotation Zrotation
			JOINT RightFoot
			{
				OFFSET 4.081824 -37.707954 -15.979600
				CHANNELS 3 Xrotation Yrotation Zrotation
				JOINT RightToeBase
				{
					OFFSET -5.346400 -15.068900 20.645000
					CHANNELS 3 Xrotation Yrotation Zrotation
					JOINT RightToe_End
					{
						OFFSET -2.754700 0.931300 11.300900
						CHANNELS 3 Xrotation Yrotation Zrotation
						End Site
						{
							OFFSET 0.000000 11.669021 0.000000
						}
					}
				}
			}
		}
	}
}
MOTION
Frames: 5
Frame Time: 0.033333
-0.834535 90.320343 0.889019 -16.971929 -39.313954 -8.511011 7.992405 0.151750 -1.102777 16.413459 -0.125507 -0.745994 16.413522 -0.192914 -0.721088 0.367404 7.480964 0.837549 -6.982138 21.597277 11.882991 0.000001 0.000001 -0.000002 -37.571085 -4.822528 1.545822 -41.628422 -7.015795 -61.684367 -0.000043 -64.995903 -0.000037 -119.359605 1.120078 32.550236 1.567995 0.456405 2.719339 19.473185 -1.474913 7.636922 -4.536184 -9.613104 1.492975 -0.000001 0.000005 0.000000 -1.882818 2.129423 -39.817018 2.947090 5.081721 -60.200529 0.514382 2.402402 -24.167397 0.000003 -0.000000 0.000001 0.405917 5.507046 -52.453172 3.387117 5.308630 -65.057463 0.282019 1.797463 -17.832364 -0.000001 -0.000002 0.000000 -0.074383 5.736778 -61.061420 4.422078 5.674479 -75.840406 0.582664 2.548972 -25.747996 -0.000002 0.000003 0.000002 2.216800 7.072453 -64.435417 4.422627 5.674622 -75.845788 1.294131 3.673933 -38.798466 -0.000002 -0.000001 -0.000000 -41.176294 -8.605650 -9.942314 -46.819656 58.242956 100.948666 0.000256 98.442970 -0.000256 -52.463120 -17.216614 -29.273125 8.377151 -4.904124 11.021990 21.620190 -18.183897 -18.379202 -0.702891 -49.821203 -32.535152 -0.000001 0.000001 0.000001 -1.101405 1.407140 15.159530 1.422360 -3.352172 45.974092 0.615841 -2.316441 29.773109 -0.000000 0.000000 -0.000000 3.413051 -7.186267 51.650253 6.296815 -4.359576 110.634680 0.248702 -1.503061 18.790252 -0.000001 -0.000000 0.000000 -3.349038 -2.600430 57.010585 5.440848 -4.590892 99.698168 1.689399 -3.590714 50.382248 -0.000000 0.000000 -0.000000 -3.996440 -3.303932 64.593843 4.058843 -4.618672 82.610537 2.315547 -4.026788 59.787207 -0.000000 0.000000 -0.000000 -19.691837 43.634131 27.886949 23.866436 -0.360600 -1.060415 1.173626 2.025242 -4.098268 -0.000126 0.000013 -0.000000 0.000000 -0.000000 0.000000 8.090640 5.369374 -8.080228 28.380430 0.130531 1.350203 -21.559651 -18.000991 5.110544 -0.020496 0.000003 -0.000001 -0.000000 0.000000 -0.000000 
-0.765810 90.221954 0.848938 -16.977082 -39.612222 -8.571110 7.564545 -0.127887 -1.064705 16.507927 -0.139116 -0.584123 16.502041 -0.200965 -0.558889 0.317964 7.563582 0.982130 -5.596118 22.418385 11.343600 0.000001 0.000000 0.000000 -37.564565 -4.814535 1.429883 -41.512377 -6.611430 -61.567872 0.000005 -64.889215 0.000018 -119.931619 1.096667 32.347185 1.573907 0.476821 2.709532 19.481650 -1.448464 7.625744 -4.540518 -9.638612 1.496870 0.000001 0.000001 -0.000000 -1.862538 2.154326 -39.818736 2.947073 5.081720 -60.200263 0.514389 2.402401 -24.167393 -0.000003 0.000000 0.000004 0.399155 5.502030 -52.456287 3.389111 5.309541 -65.078732 0.282679 1.799512 -17.853582 -0.000002 0.000001 0.000000 -0.083314 5.733230 -61.080462 4.424298 5.675029 -75.862590 0.583672 2.551048 -25.770647 -0.000000 0.000002 0.000001 2.215339 7.071764 -64.435417 4.427586 5.675862 -75.896058 1.294117 3.673918 -38.798442 -0.000001 0.000000 0.000000 -41.439635 -8.587459 -11.111648 -46.765451 59.500291 101.686750 0.000275 98.209466 -0.000263 -50.624925 -16.515333 -30.200269 8.372381 -4.892727 11.044415 21.607191 -18.162636 -18.384153 -0.700201 -49.827914 -32.535343 -0.000000 0.000000 0.000002 -1.097106 1.392637 15.154308 1.422325 -3.352153 45.973737 0.615839 -2.316439 29.773116 -0.000000 0.000000 0.000000 3.405820 -7.178192 51.703094 6.298577 -4.358912 110.658046 0.248709 -1.503061 18.790262 0.000001 -0.000000 -0.000000 -3.349342 -2.603550 57.034579 5.441157 -4.590853 99.702006 1.689657 -3.590901 50.386097 -0.000001 0.000001 0.000002 -3.997259 -3.304994 64.603822 4.070571 -4.620177 82.756225 2.325780 -4.032721 59.932738 -0.000000 -0.000001 -0.000001 -19.841708 43.475158 27.518788 24.199000 -1.139942 -0.881993 0.889710 1.976545 -3.944358 -0.015950 0.000002 0.000002 0.000000 -0.000001 -0.000000 7.714910 5.341635 -8.093818 28.668281 0.530081 1.377602 -21.616531 -17.989668 4.946077 -0.021243 0.000000 -0.000001 0.000000 -0.000001 -0.000000 
-0.622747 90.046478 0.817467 -17.513814 -39.906859 -9.247809 6.463589 -1.691505 -1.273357 16.490563 -0.288049 -0.157124 16.468530 -0.340436 -0.146075 0.573535 7.733635 1.592248 -1.873034 24.356731 10.780766 0.000001 0.000000 0.000000 -37.474338 -4.141288 1.763656 -40.299721 -5.762592 -61.577004 -0.000043 -64.541292 -0.000048 -120.623381 0.902799 31.894760 1.573815 0.477930 2.701685 19.485206 -1.437367 7.621055 -4.539380 -9.631905 1.495845 -0.000001 0.000001 -0.000000 -1.832898 2.194327 -39.847214 2.947036 5.081689 -60.199990 0.514380 2.402399 -24.167380 -0.000003 -0.000000 0.000003 0.396120 5.502438 -52.506758 3.387359 5.308715 -65.059799 0.282094 1.797690 -17.834841 0.000000 -0.000001 -0.000003 -0.081946 5.734865 -61.092627 4.423158 5.674744 -75.851054 0.583163 2.549994 -25.759160 0.000000 0.000001 0.000001 2.213892 7.071078 -64.435404 4.431530 5.676854 -75.935782 1.294124 3.673916 -38.798429 -0.000002 0.000000 -0.000000 -42.059861 -8.717649 -13.960662 -45.872124 62.245515 102.904764 -0.000727 96.982095 0.000732 -46.978205 -14.137275 -31.599665 8.370486 -4.888800 11.049007 21.612689 -18.171587 -18.382073 -0.693744 -49.843958 -32.535814 -0.000003 -0.000000 0.000002 -1.097273 1.385998 15.175026 1.422325 -3.352160 45.973645 0.615864 -2.316435 29.773109 -0.000000 0.000000 -0.000000 3.409191 -7.178605 51.753504 6.297021 -4.359483 110.637754 0.248708 -1.503055 18.790265 -0.000001 0.000000 -0.000000 -3.349640 -2.606371 57.056450 5.441170 -4.590851 99.701972 1.689651 -3.590902 50.386070 -0.000000 -0.000000 -0.000000 -3.999553 -3.301170 64.585067 4.059861 -4.618815 82.623268 2.316461 -4.027314 59.800075 -0.000000 0.000000 -0.000001 -20.020990 43.263070 27.875554 24.859346 -1.681363 -0.725086 0.437058 1.977483 -3.940687 -0.069400 -0.000002 -0.000001 -0.000000 -0.000000 0.000000 7.678113 5.294603 -7.867664 28.951577 0.947644 1.359576 -21.646895 -17.869375 4.852948 -0.021240 0.000016 0.000003 -0.000000 -0.000001 0.000000 
-0.182753 89.711807 0.837448 -19.674022 -41.128606 -11.662596 5.361966 -4.199241 -1.833173 16.295491 -0.592254 0.154815 16.260896 -0.640156 0.140059 1.031826 7.914938 2.314610 1.601564 26.125477 11.453092 0.000000 0.000000 -0.000003 -37.334914 -2.723946 3.047179 -37.741921 -5.137807 -61.894723 0.000005 -64.310759 -0.000008 -120.880510 0.724918 31.203210 1.566583 0.453460 2.710924 19.473797 -1.473046 7.636122 -4.536829 -9.616875 1.493552 -0.000002 -0.000001 -0.000001 -1.874730 2.133028 -39.773144 2.947088 5.081728 -60.200440 0.514380 2.402389 -24.167397 0.000001 -0.000001 0.000003 0.389834 5.494214 -52.444095 3.387463 5.308778 -65.060844 0.282134 1.797807 -17.835938 -0.000002 -0.000001 -0.000001 -0.093182 5.725484 -61.048552 4.425315 5.675284 -75.873068 0.584160 2.552058 -25.781529 0.000001 0.000000 0.000002 2.211120 7.069758 -64.435376 4.427479 5.675832 -75.894849 1.294184 3.674005 -38.799409 -0.000000 0.000000 -0.000000 -42.584023 -8.949326 -16.400153 -43.774430 64.582451 102.844043 0.000167 95.647094 -0.000159 -44.547245 -11.639219 -32.163716 8.366582 -4.883912 11.036029 21.613531 -18.172985 -18.381743 -0.687712 -49.858810 -32.536204 -0.000002 -0.000000 0.000001 -1.094178 1.380038 15.158403 1.422312 -3.352140 45.973471 0.615862 -2.316434 29.773109 -0.000000 -0.000000 0.000000 3.411054 -7.176759 51.828199 6.296976 -4.359507 110.636879 0.248701 -1.503056 18.790265 -0.000000 0.000000 -0.000000 -3.350025 -2.605438 57.051467 5.440997 -4.590886 99.699821 1.689529 -3.590789 50.384000 0.000001 -0.000000 0.000001 -4.001869 -3.299301 64.579664 4.070437 -4.620138 82.754408 2.325653 -4.032637 59.931017 0.000001 -0.000001 0.000001 -19.988240 43.638922 29.984315 26.071592 -1.959419 -1.009471 -0.527224 2.064303 -3.988074 -0.124741 -0.000001 0.000002 0.000000 0.000000 0.000000 8.035787 5.356216 -7.373655 29.452657 1.507976 1.022656 -21.274608 -16.746541 5.124031 -0.021240 -0.000004 0.000000 0.000000 -0.000000 -0.000000 
0.724058 89.272972 0.951107 -24.191258 -44.717727 -16.461746 4.808886 -5.864279 -2.503901 16.066873 -0.884844 -0.090313 16.033271 -0.935261 -0.121867 1.971333 8.137790 2.655787 3.083475 26.791801 13.352039 -0.000000 0.000002 0.000002 -37.252968 -1.169846 4.887986 -34.691204 -4.982302 -62.257618 0.000079 -64.884564 0.000080 -120.594107 0.824927 30.345564 1.577661 0.490181 2.700988 19.488085 -1.428361 7.617246 -4.542578 -9.650846 1.498752 -0.000001 -0.000000 -0.000000 -1.890012 2.125356 -39.849953 2.947105 5.081737 -60.200618 0.514386 2.402399 -24.167381 -0.000002 -0.000001 0.000003 0.395759 5.506358 -52.583837 3.390907 5.310347 -65.098028 0.283279 1.801383 -17.872857 0.000000 -0.000001 -0.000002 -0.059154 5.751298 -61.146797 4.425418 5.675318 -75.874078 0.584123 2.551986 -25.780829 0.000000 -0.000000 0.000000 2.219116 7.073562 -64.435472 4.436973 5.678201 -75.990772 1.295331 3.675429 -38.817212 0.000000 -0.000001 -0.000001 -42.580516 -9.147227 -16.453410 -40.189202 64.684439 100.155777 0.001115 95.498858 -0.001119 -45.559459 -10.672322 -30.762854 8.365004 -4.879776 11.045832 21.606786 -18.161973 -18.384303 -0.682116 -49.872720 -32.536614 -0.000001 0.000001 -0.000001 -1.092023 1.378354 15.139468 1.422327 -3.352130 45.973368 0.615853 -2.316435 29.773109 -0.000000 0.000001 -0.000000 3.411411 -7.178370 51.798252 6.296986 -4.359523 110.636811 0.248706 -1.503072 18.790269 0.000000 -0.000000 0.000000 -3.350348 -2.603802 57.041089 5.437835 -4.591405 99.660123 1.687030 -3.588743 50.344392 -0.000000 -0.000001 -0.000001 -4.005076 -3.299715 64.593174 4.059952 -4.618793 82.624231 2.316515 -4.027358 59.801223 0.000001 0.000000 -0.000000 -18.884017 45.402815 33.695830 27.334057 -1.372273 -2.052598 -2.056935 2.410012 -4.429943 -0.122743 -0.000001 -0.000002 -0.000000 0.000000 0.000000 7.890935 5.791964 -7.153506 30.501426 2.350654 0.117543 -20.060419 -13.422149 6.047199 -0.021254 0.000018 0.000005 -0.000000 0.000002 0.000000 
